PathFileType	4	(X/Y/Z)	none_P007_Squats1_0-2550.trc
DataRate	CameraRate	NumFrames	NumMarkers	Units	OrigDataRate	OrigDataStartFrame	OrigNumFrames
85	85	4	21	m	85	1912	2550
Frame#	Time	RHip			RKnee			RAnkle			RBigToe			RSmallToe			RHeel			LHip			LKnee			LAnkle			LBigToe			LSmallToe			LHeel			Neck			Head			Nose			RShoulder			RElbow			RWrist			LShoulder			LElbow			LWrist		
		X1	Y1	Z1	X2	Y2	Z2	X3	Y3	Z3	X4	Y4	Z4	X5	Y5	Z5	X6	Y6	Z6	X7	Y7	Z7	X8	Y8	Z8	X9	Y9	Z9	X10	Y10	Z10	X11	Y11	Z11	X12	Y12	Z12	X13	Y13	Z13	X14	Y14	Z14	X15	Y15	Z15	X16	Y16	Z16	X17	Y17	Z17	X18	Y18	Z18	X19	Y19	Z19	X20	Y20	Z20	X21	Y21	Z21
1913	22.50588235294118	0.7873599364700149	0.5629953637358963	0.406478348795642	0.5185165923442822	0.4046532737827318	0.3941449684378622	0.6955881591282127	0.055780647762300906	0.3695390122830337	0.5201392108029471	0.0054885323794544106	0.33301223800001734	0.5833282844467554	0.01636127164847177	0.2980994369226418	0.7494552689320186	0.02187685721034564	0.3789657655997033	0.7966303856006122	0.5640416465158645	0.6140085178614612	0.5103978549171222	0.40733536835141093	0.6392278508783275	0.7012230129234541	0.05810737132477601	0.650678105084388	0.5576568769097812	0.011195856730484285	0.6998600278353332	0.6159043984407068	0.01525846341948695	0.7254988555374599	0.7413888833048665	0.022714434603813387	0.6364644555141665	0.47027045508260734	0.8616587575491395	0.4951445201720692	0.13254300711906758	0.9846319382298964	0.4709778892894087	0.2251517879361847	0.8457548829763307	0.49101490829228045	0.53948198871606	0.8712087019376792	0.3769118231668674	0.721387509649716	0.8334999716356056	0.32350696520801386	0.5490138739271029	0.9046951531782945	0.27066656479254886	0.5375588557305756	0.873011886729147	0.6211726127821073	0.661878573960972	0.8192665745306158	0.7350830131544409	0.5404476015479933	0.8913306465547344	0.756483710169212
1914	22.51764705882353	0.7885947516451394	0.5651682789951789	0.40653476127642973	0.5201365472458577	0.4057263429785261	0.3947152972430874	0.6957311876051407	0.05604499405970829	0.3693826045736105	0.5202615172040926	0.00559836431036177	0.3332621552249134	0.5826362873753655	0.01618240987963557	0.29817028791389544	0.749185542370031	0.022203298203580787	0.37896485836281907	0.7965027041973847	0.5669855854782899	0.6139472792328415	0.5123766333554233	0.40778063783897384	0.6392664975838107	0.7016137877223775	0.05833192686691907	0.6509673222203922	0.556571711445197	0.011435823692997867	0.6998657280948984	0.6136726343146379	0.015414650043600065	0.725441016604975	0.7413830470674869	0.023099258831074807	0.6364495192566091	0.47139754561677405	0.8650203218931115	0.49457318794835625	0.13423038165841306	0.9858222208528429	0.47260640115031216	0.23319087531576446	0.8463685382718384	0.49194463750041495	0.5415282572287412	0.8763865181023509	0.37712071680413195	0.7303006553014111	0.8366874984740836	0.3259547830866746	0.5522173510612364	0.9092949042454647	0.2715380369563193	0.537800870928839	0.8777464556277069	0.6206235762882101	0.675205699457329	0.8206468694551503	0.7328622363868814	0.547534049385861	0.8930326079345121	0.7586771307447407
1915	22.529411764705884	0.7893855872827986	0.5671105207754299	0.4066239960911884	0.5216132270412392	0.4068036488476351	0.39499099016174555	0.6960389844517236	0.056343352817162295	0.36924221616227937	0.5202887281688554	0.005783504178322772	0.33346848168224136	0.5821394720499569	0.016122186591937496	0.2981314212140676	0.7489417902787059	0.02251321763036298	0.37895611970687715	0.7959536307936411	0.5694360702661436	0.6137875798579497	0.5144208191653821	0.4082606314175774	0.6393585352321136	0.702023577851346	0.05853518800008589	0.651239748225156	0.5556929875099118	0.011725861284760228	0.6998486559855278	0.6117973253696272	0.015565336188774427	0.7253367591089604	0.7414327880303312	0.023348967049037904	0.6364924884623107	0.47234223879089327	0.8682557582121276	0.4941115962828657	0.1353736129475015	0.9878095466391491	0.47409884624827486	0.24094863875005895	0.8474680455947358	0.492040577950611	0.5428266958838183	0.8805314499306865	0.3773142752530006	0.7367974450067835	0.8401544856761286	0.327430519732395	0.5544046862272726	0.914055593009718	0.27206636421185537	0.5376703002458528	0.8819636061509876	0.6204764977009011	0.685519853331686	0.822512164682589	0.7314173980811437	0.5545492802035319	0.8948448013937875	0.7604875697859574
1916	22.54117647058824	0.7896177585987726	0.5689023644925093	0.4066304335863147	0.5228517149755051	0.4079085299778977	0.39505479611358246	0.6966264080993129	0.05665312444925183	0.36911660775368743	0.5201129087695584	0.006024527436447479	0.3336296100700961	0.5818059254316316	0.016238054357452472	0.29798796580320686	0.7489011315488142	0.02277897870542165	0.37891156152505173	0.7948529070003165	0.5715064677881783	0.6134992228345298	0.5164011466390817	0.40888699805261564	0.6394751221271229	0.7024774080475193	0.05869695183005976	0.6514620758733831	0.555223601173121	0.012045341184523502	0.6998495233934744	0.6107843993405335	0.01568466348306935	0.7252581594463202	0.7416042394946577	0.023461328265944936	0.6365966413394074	0.47313377186428196	0.8714013836917832	0.49374541316683485	0.13604138872756635	0.9905493914307613	0.47521282925367564	0.2482263398083278	0.8489835803490573	0.4913404685634355	0.5433216436920435	0.88355948779155	0.3774194731327255	0.739973260308616	0.8440523971227445	0.32747257878599184	0.5554850199489559	0.919024210494611	0.27220811715967164	0.5370933234374469	0.8856350008691911	0.6207452436216376	0.6924298006975054	0.8249128126089876	0.730791808952133	0.5605688768649119	0.8970234389745732	0.7617738843190973
